<svg xmlns="http://www.w3.org/2000/svg" viewBox="0 0 762.13 73.27"><defs><style>.a,.b{fill:#fff;}.a,.c{stroke:#fff;stroke-miterlimit:10;}.c{fill:none;}</style></defs><title>mobilelogo</title><path class="a" d="M20,311.55a10.89,10.89,0,0,0,5.08,3.17,5.78,5.78,0,0,0,5.59-1.48c1.48-1.65,1.56-4.1,1.55-6.32l-.06-51c0-.61.08-1.24.75-1.27.92,0,1.86,0,2.78,0l5.46,0q0,26.31.07,52.61a17.3,17.3,0,0,1-.95,6.89,12.47,12.47,0,0,1-10.81,8.56,14.82,14.82,0,0,1-7.82-1.07,39.83,39.83,0,0,1-6.85-4.13Z" transform="translate(-14.04 -250.12)"/><path class="a" d="M96.44,254.46l-32.61-.28v62.66H96.44v-8H73.09V286.65H96.44V279H73.09V262.44H96.44Z" transform="translate(-14.04 -250.12)"/><polygon class="a" points="183.66 66.72 183.66 1.49 230.71 48.54 230.71 4.06 239.35 4.06 239.35 66.72 191.07 20.72 191.07 66.72 183.66 66.72"/><rect class="a" x="261.86" y="4.34" width="9.12" height="62.1"/><polygon class="a" points="292.48 66.44 292.48 4.34 322.81 4.34 322.81 12.17 301.31 12.17 301.31 28.55 321.25 28.55 321.25 36.24 301.17 36.24 301.17 66.44 292.48 66.44"/><polygon class="a" points="375.65 12.17 375.65 4.34 342.75 4.34 342.75 66.44 375.65 66.44 375.65 58.89 351.73 58.89 351.73 35.96 375.65 35.96 375.65 28.55 351.58 28.55 351.58 11.89 375.65 12.17"/><path class="b" d="M448,314.57v2H437.84L420.18,289.5v27.06h-9.12v-62.1h19.37a16.45,16.45,0,0,1,7.55,3.28c6.24,4.92,6.41,12.77,6.41,14,0,.94.26,9.1-6.05,14a15.63,15.63,0,0,1-7.91,3.11v1.39Zm-13.21-37.22a8.29,8.29,0,0,0,.54-5.23,9.52,9.52,0,0,0-1.18-5c-2.33-4-8-6-14.21-4.94v19.94C426.73,283.61,432.77,281.43,434.74,277.35Z" transform="translate(-14.04 -250.12)"/><path class="c" d="M411.06,316.56v-62.1h19.37a16.45,16.45,0,0,1,7.55,3.28c6.24,4.92,6.41,12.77,6.41,14,0,.94.26,9.1-6.05,14a15.63,15.63,0,0,1-7.91,3.11v1.39L448,314.57v2H437.84L420.18,289.5v27.06Z" transform="translate(-14.04 -250.12)"/><path class="c" d="M419.89,282.09V262.15c6.22-1.1,11.88.89,14.21,4.94a9.52,9.52,0,0,1,1.18,5,8.29,8.29,0,0,1-.54,5.23C432.77,281.43,426.73,283.61,419.89,282.09Z" transform="translate(-14.04 -250.12)"/><polygon class="a" points="489.25 4.34 498.39 4.34 498.39 58.53 514.62 58.53 514.62 66.44 489.25 66.44 489.25 4.34"/><path class="b" d="M656.43,259.83a16.2,16.2,0,0,1,3.68,12.39c0,.55.19,11.21-7.63,15.79a14.38,14.38,0,0,1-7.08,1.91H634.64v26.69h-8.85V254.38h18.79A16.2,16.2,0,0,1,656.43,259.83Zm-5.18,12.32a9.14,9.14,0,0,0-1.09-5c-2.35-4.23-8.4-6.3-15.11-5v20c6.63,1.35,12.67-.66,15.06-4.86A9.26,9.26,0,0,0,651.25,272.15Z" transform="translate(-14.04 -250.12)"/><path class="c" d="M625.79,316.61V254.38h18.79a15.73,15.73,0,0,1,15.53,17.84c0,.55.19,11.21-7.63,15.79a14.38,14.38,0,0,1-7.08,1.91H634.64v26.69Z" transform="translate(-14.04 -250.12)"/><path class="c" d="M635.05,282.16v-20c6.71-1.26,12.76.81,15.11,5a9.14,9.14,0,0,1,1.09,5,9.26,9.26,0,0,1-1.14,5.15C647.72,281.5,641.68,283.51,635.05,282.16Z" transform="translate(-14.04 -250.12)"/><polygon class="a" points="665.05 4.26 697.71 4.26 697.71 11.65 672.33 11.65 672.33 28.83 697.71 28.83 697.71 36.26 672.49 36.26 672.49 58.57 697.71 58.57 697.71 66.49 665.05 66.49 665.05 4.26"/><polygon class="a" points="718.07 4.26 761.23 4.26 727.77 58.9 761.23 58.9 761.23 66.49 713.39 66.49 746.85 12.34 718.07 12.34 718.07 4.26"/><path class="b" d="M575.07,252.34a32.53,32.53,0,1,1-32.54,32.53A32.53,32.53,0,0,1,575.07,252.34Zm23.29,33a23.6,23.6,0,1,0-23.6,23.6A23.59,23.59,0,0,0,598.36,285.38Z" transform="translate(-14.04 -250.12)"/><path class="c" d="M607.6,284.87a32.54,32.54,0,1,1-32.53-32.53A32.53,32.53,0,0,1,607.6,284.87Z" transform="translate(-14.04 -250.12)"/><circle class="c" cx="560.72" cy="35.26" r="23.6"/><polygon class="a" points="105.19 66.44 105.19 1.21 152.24 48.25 152.24 3.77 160.88 3.77 160.88 66.44 112.59 20.43 112.59 66.44 105.19 66.44"/></svg>